<svg width="109" height="116" viewBox="0 0 109 116" fill="none" xmlns="http://www.w3.org/2000/svg">
<path d="M54.5773 4.00452C78.5344 4.00471 96.5742 19.6387 96.5743 37.3893C96.5743 55.14 78.5345 70.7748 54.5773 70.775C30.6198 70.775 12.5792 55.1401 12.5792 37.3893C12.5794 19.6386 30.6199 4.00452 54.5773 4.00452Z" stroke="#CC3A0E" stroke-width="7.43481"/>
<path d="M107.652 33.0006L108.666 115.063H0.487823L1.50247 33.0006H107.652Z" fill="#CC3A0E" stroke="#CC3A0E" stroke-width="0.660429"/>
<path d="M21.9237 63.1442H4.50766V45.7321H21.9237V63.1442ZM17.7459 49.9099C17.382 49.546 16.7917 49.5462 16.4276 49.9099L13.2157 53.1198L10.0047 49.9099C9.64073 49.546 9.05046 49.5462 8.68637 49.9099C8.32267 50.274 8.32246 50.8642 8.68637 51.2282L11.8973 54.4382L8.68735 57.6481C8.32333 58.0122 8.32336 58.6034 8.68735 58.9675C9.05142 59.331 9.64173 59.3312 10.0057 58.9675L13.2157 55.7565L16.4266 58.9675C16.7905 59.3313 17.3808 59.3308 17.745 58.9675C18.1086 58.6033 18.109 58.0121 17.745 57.6481L14.534 54.4382L17.7459 51.2282C18.1096 50.8641 18.1098 50.2739 17.7459 49.9099Z" fill="white"/>
<path d="M105.304 63.1505H87.8877V45.7384H105.304V63.1505ZM101.126 49.9171C100.762 49.553 100.172 49.553 99.8076 49.9171L96.5957 53.127L93.3848 49.9171C93.0207 49.553 92.4305 49.553 92.0664 49.9171C91.7027 50.2812 91.7025 50.8715 92.0664 51.2354L95.2774 54.4454L92.0674 57.6554C91.7034 58.0195 91.7034 58.6106 92.0674 58.9747C92.4315 59.3378 93.0219 59.3383 93.3858 58.9747L96.5957 55.7638L99.8067 58.9747C100.171 59.3382 100.761 59.338 101.125 58.9747C101.489 58.6107 101.489 58.0195 101.125 57.6554L97.9141 54.4454L101.126 51.2354C101.49 50.8715 101.49 50.2813 101.126 49.9171Z" fill="white"/>
</svg>
