<svg width="99" height="25" viewBox="0 0 99 25" fill="none" xmlns="http://www.w3.org/2000/svg">
<path d="M7.52246 4.95643H10.21V9.84119H7.52246V12.4789H2.6377V9.84119H0V4.95643H2.6377V2.26893H7.52246V4.95643Z" fill="#CC3A0E"/>
<path d="M15.406 16.2773C15.6783 16.4285 15.9657 16.5496 16.2682 16.6403C16.5707 16.7159 16.8884 16.7538 17.2212 16.7538C17.7203 16.7538 18.1817 16.663 18.6052 16.4815C19.0439 16.2848 19.4296 16.0277 19.7624 15.7101C20.0951 15.3773 20.3523 14.9916 20.5338 14.5529C20.7304 14.1142 20.8288 13.6453 20.8288 13.1462C20.8288 12.647 20.7304 12.1857 20.5338 11.7621C20.3523 11.3235 20.0951 10.9377 19.7624 10.605C19.4296 10.2722 19.0439 10.015 18.6052 9.83353C18.1817 9.63689 17.7203 9.53857 17.2212 9.53857C16.722 9.53857 16.2531 9.63689 15.8144 9.83353C15.3909 10.015 15.0127 10.2722 14.68 10.605C14.3472 10.9377 14.0825 11.3235 13.8858 11.7621C13.7043 12.1857 13.6136 12.647 13.6136 13.1462V23.1975H11.1177V13.1462C11.1177 12.3142 11.2766 11.5277 11.5942 10.7865C11.9119 10.0453 12.3505 9.39487 12.9102 8.8352C13.4699 8.27554 14.1127 7.83688 14.8388 7.51923C15.58 7.20158 16.3741 7.04275 17.2212 7.04275C18.0531 7.04275 18.8397 7.20158 19.5808 7.51923C20.322 7.83688 20.9725 8.27554 21.5321 8.8352C22.0918 9.39487 22.5305 10.0453 22.8481 10.7865C23.1658 11.5277 23.3246 12.3142 23.3246 13.1462C23.3246 13.9932 23.1658 14.7874 22.8481 15.5285C22.5305 16.2697 22.0918 16.9201 21.5321 17.4798C20.9725 18.0244 20.322 18.4555 19.5808 18.7731C18.8397 19.0908 18.0531 19.2496 17.2212 19.2496C16.0564 19.2496 14.9825 18.9471 13.9993 18.342L15.406 16.2773ZM24.6781 19V11.4898C24.6781 10.8848 24.7916 10.31 25.0185 9.76546C25.2454 9.22092 25.5555 8.75201 25.9487 8.35873C26.3571 7.96545 26.8261 7.65536 27.3555 7.42847C27.8849 7.18645 28.4597 7.06544 29.0799 7.06544V9.56126C28.5504 9.56126 28.0966 9.75034 27.7185 10.1285C27.3555 10.5066 27.174 10.9604 27.174 11.4898V19H24.6781ZM38.9782 18.3647C37.995 18.9697 36.9211 19.2723 35.7563 19.2723C34.9093 19.2723 34.1152 19.1134 33.374 18.7958C32.6479 18.4781 32.0051 18.047 31.4454 17.5025C30.8857 16.9428 30.4471 16.2924 30.1294 15.5512C29.8118 14.81 29.6529 14.0159 29.6529 13.1689C29.6529 12.3369 29.8118 11.5504 30.1294 10.8092C30.4471 10.068 30.8857 9.41756 31.4454 8.85789C32.0051 8.29822 32.6479 7.85957 33.374 7.54192C34.1152 7.22427 34.9093 7.06544 35.7563 7.06544C36.5883 7.06544 37.3748 7.22427 38.116 7.54192C38.8572 7.85957 39.5076 8.29822 40.0673 8.85789C40.627 9.41756 41.0656 10.068 41.3833 10.8092C41.7009 11.5504 41.8598 12.3369 41.8598 13.1689V19H39.3639V13.1689C39.3639 12.6697 39.2656 12.2083 39.069 11.7848C38.8875 11.3462 38.6303 10.9604 38.2975 10.6277C37.9648 10.2949 37.5791 10.0377 37.1404 9.85622C36.7169 9.65958 36.2555 9.56126 35.7563 9.56126C35.2572 9.56126 34.7883 9.65958 34.3496 9.85622C33.9261 10.0377 33.5479 10.2949 33.2151 10.6277C32.8824 10.9604 32.6177 11.3462 32.421 11.7848C32.2395 12.2083 32.1488 12.6697 32.1488 13.1689C32.1488 13.668 32.2395 14.1369 32.421 14.5756C32.6177 15.0142 32.8824 15.4 33.2151 15.7327C33.5479 16.0504 33.9261 16.3075 34.3496 16.5042C34.7883 16.6857 35.2572 16.7765 35.7563 16.7765C36.0891 16.7765 36.4068 16.7386 36.7093 16.663C37.0118 16.5722 37.2992 16.4512 37.5715 16.3L38.9782 18.3647Z" fill="#CC3A0E"/>
<path d="M50.577 9.23558C52.5917 9.23562 54.1091 10.5505 54.1093 12.0432C54.1093 13.536 52.5918 14.8508 50.577 14.8508C48.5622 14.8508 47.0448 13.536 47.0448 12.0432C47.0449 10.5504 48.5623 9.23558 50.577 9.23558Z" stroke="#CC3A0E" stroke-width="0.62526"/>
<path d="M55.04 11.6739L55.126 18.5752H46.0273L46.1133 11.6739H55.04Z" fill="#CC3A0E" stroke="#CC3A0E" stroke-width="0.0555414"/>
<path d="M47.831 14.2089H46.3661V12.745H47.831V14.2089ZM47.4794 13.0965C47.4488 13.0659 47.3987 13.0659 47.3681 13.0965L47.0986 13.3661L46.829 13.0965C46.7984 13.0659 46.7483 13.0659 46.7177 13.0965C46.6871 13.1272 46.6871 13.1773 46.7177 13.2079L46.9872 13.4774L46.7177 13.7479C46.6874 13.7786 46.6872 13.8278 46.7177 13.8583C46.7482 13.8886 46.7975 13.8885 46.8281 13.8583L47.0986 13.5878L47.3691 13.8583C47.3997 13.8884 47.4489 13.8886 47.4794 13.8583C47.5099 13.8278 47.5097 13.7786 47.4794 13.7479L47.2089 13.4774L47.4794 13.2079C47.51 13.1773 47.5099 13.1272 47.4794 13.0965Z" fill="white"/>
<path d="M54.8432 14.2094H53.3783V12.7455H54.8432V14.2094ZM54.4916 13.0971C54.461 13.0665 54.4109 13.0665 54.3803 13.0971L54.1107 13.3666L53.8412 13.0971C53.8106 13.0665 53.7605 13.0665 53.7299 13.0971C53.6993 13.1277 53.6993 13.1778 53.7299 13.2084L53.9994 13.4779L53.7299 13.7484C53.6996 13.7791 53.6994 13.8283 53.7299 13.8588C53.7604 13.8891 53.8096 13.889 53.8402 13.8588L54.1107 13.5883L54.3812 13.8588C54.4119 13.889 54.4611 13.8892 54.4916 13.8588C54.5221 13.8283 54.5218 13.7791 54.4916 13.7484L54.2211 13.4779L54.4916 13.2084C54.5222 13.1778 54.5221 13.1277 54.4916 13.0971Z" fill="white"/>
<path d="M58.2714 14.5285C58.044 14.4692 57.8363 14.3752 57.6484 14.2467C57.4703 14.1181 57.3121 13.9648 57.1736 13.7868C57.0451 13.6088 56.9412 13.4109 56.8621 13.1934C56.7929 12.9659 56.7582 12.7335 56.7582 12.4961C56.7582 12.1994 56.8126 11.9225 56.9214 11.6653C57.0401 11.3983 57.1984 11.1708 57.3962 10.9829C57.594 10.7851 57.8214 10.6318 58.0786 10.523C58.3357 10.4043 58.6127 10.345 58.9094 10.345H63.1077V11.9769H58.8649C58.7264 11.9967 58.6127 12.056 58.5236 12.1549C58.4346 12.2538 58.3901 12.3675 58.3901 12.4961C58.3901 12.6049 58.4198 12.7038 58.4791 12.7928C58.5484 12.8818 58.6324 12.9362 58.7313 12.956L61.8616 13.7571C62.1088 13.8066 62.3413 13.8956 62.5588 14.0241C62.7764 14.1428 62.9643 14.2961 63.1226 14.484C63.2808 14.6719 63.4045 14.8846 63.4935 15.122C63.5924 15.3593 63.6418 15.6115 63.6418 15.8786C63.6418 16.1753 63.5825 16.4522 63.4638 16.7093C63.355 16.9665 63.2017 17.1939 63.0039 17.3918C62.816 17.5797 62.5935 17.728 62.3363 17.8368C62.0792 17.9456 61.8072 18 61.5204 18H57.2478V16.3681H61.5797C61.6984 16.3483 61.7973 16.2939 61.8764 16.2049C61.9654 16.1159 62.0099 16.0071 62.0099 15.8786C62.0099 15.75 61.9704 15.6412 61.8913 15.5522C61.8121 15.4533 61.7182 15.3939 61.6094 15.3742L58.2714 14.5285ZM66.3108 7.61529V10.8939C66.6174 10.6664 66.9536 10.4933 67.3196 10.3747C67.6855 10.256 68.0762 10.1966 68.4916 10.1966C69.0157 10.1966 69.5103 10.3005 69.9751 10.5082C70.4399 10.706 70.8454 10.978 71.1916 11.3241C71.5377 11.6703 71.8097 12.0758 72.0075 12.5406C72.2152 13.0055 72.3191 13.5 72.3191 14.0241V18H70.6872V14.0241C70.6872 13.7274 70.6278 13.4456 70.5092 13.1785C70.4004 12.9115 70.2421 12.6791 70.0344 12.4813C69.8366 12.2736 69.6042 12.1153 69.3372 12.0065C69.0701 11.8879 68.7883 11.8285 68.4916 11.8285C68.1949 11.8285 67.913 11.8829 67.646 11.9917C67.3888 12.1005 67.1613 12.2538 66.9635 12.4516C66.7657 12.6395 66.6075 12.862 66.4888 13.1192C66.3701 13.3763 66.3108 13.6483 66.3108 13.9351V18H64.6789V7.61529H66.3108ZM73.1437 14.1873C73.1437 13.6434 73.2476 13.1291 73.4552 12.6445C73.6629 12.1598 73.9498 11.7346 74.3157 11.3686C74.6816 11.0027 75.102 10.7159 75.5767 10.5082C76.0613 10.3005 76.5805 10.1966 77.1344 10.1966C77.6784 10.1966 78.1927 10.3005 78.6773 10.5082C79.1619 10.7159 79.5872 11.0027 79.9531 11.3686C80.319 11.7346 80.6059 12.1598 80.8136 12.6445C81.0212 13.1291 81.1251 13.6434 81.1251 14.1873C81.1251 14.7412 81.0212 15.2604 80.8136 15.745C80.6059 16.2297 80.319 16.6549 79.9531 17.0209C79.5872 17.3769 79.1619 17.6588 78.6773 17.8665C78.1927 18.0742 77.6784 18.178 77.1344 18.178C76.5805 18.178 76.0613 18.0742 75.5767 17.8665C75.102 17.6588 74.6816 17.3769 74.3157 17.0209C73.9498 16.6549 73.6629 16.2297 73.4552 15.745C73.2476 15.2604 73.1437 14.7412 73.1437 14.1873ZM74.7756 14.1873C74.7756 14.5137 74.8349 14.8203 74.9536 15.1071C75.0822 15.3939 75.2553 15.6461 75.4728 15.8637C75.6904 16.0714 75.9377 16.2395 76.2146 16.3681C76.5014 16.4868 76.808 16.5461 77.1344 16.5461C77.4608 16.5461 77.7624 16.4868 78.0394 16.3681C78.3262 16.2395 78.5784 16.0714 78.796 15.8637C79.0135 15.6461 79.1817 15.3939 79.3004 15.1071C79.4289 14.8203 79.4932 14.5137 79.4932 14.1873C79.4932 13.861 79.4289 13.5593 79.3004 13.2824C79.1817 12.9956 79.0135 12.7434 78.796 12.5258C78.5784 12.3082 78.3262 12.1401 78.0394 12.0214C77.7624 11.8928 77.4608 11.8285 77.1344 11.8285C76.808 11.8285 76.5014 11.8928 76.2146 12.0214C75.9377 12.1401 75.6904 12.3082 75.4728 12.5258C75.2553 12.7434 75.0822 12.9956 74.9536 13.2824C74.8349 13.5593 74.7756 13.861 74.7756 14.1873ZM84.7485 16.2198C84.9265 16.3187 85.1144 16.3978 85.3122 16.4571C85.51 16.5066 85.7177 16.5313 85.9353 16.5313C86.2617 16.5313 86.5633 16.472 86.8403 16.3533C87.1271 16.2247 87.3793 16.0566 87.5969 15.8489C87.8145 15.6313 87.9826 15.3791 88.1013 15.0923C88.2298 14.8055 88.2941 14.4989 88.2941 14.1725C88.2941 13.8461 88.2298 13.5445 88.1013 13.2675C87.9826 12.9807 87.8145 12.7285 87.5969 12.5109C87.3793 12.2934 87.1271 12.1252 86.8403 12.0065C86.5633 11.878 86.2617 11.8137 85.9353 11.8137C85.6089 11.8137 85.3023 11.878 85.0155 12.0065C84.7386 12.1252 84.4914 12.2934 84.2738 12.5109C84.0562 12.7285 83.8831 12.9807 83.7545 13.2675C83.6359 13.5445 83.5765 13.8461 83.5765 14.1725V20.7445H81.9446V14.1725C81.9446 13.6285 82.0485 13.1142 82.2562 12.6296C82.4639 12.145 82.7507 11.7197 83.1166 11.3538C83.4826 10.9879 83.9029 10.701 84.3776 10.4933C84.8622 10.2856 85.3815 10.1818 85.9353 10.1818C86.4793 10.1818 86.9936 10.2856 87.4782 10.4933C87.9628 10.701 88.3881 10.9879 88.754 11.3538C89.12 11.7197 89.4068 12.145 89.6145 12.6296C89.8222 13.1142 89.926 13.6285 89.926 14.1725C89.926 14.7263 89.8222 15.2456 89.6145 15.7302C89.4068 16.2148 89.12 16.6401 88.754 17.006C88.3881 17.3621 87.9628 17.644 87.4782 17.8516C86.9936 18.0593 86.4793 18.1632 85.9353 18.1632C85.1738 18.1632 84.4716 17.9654 83.8287 17.5698L84.7485 16.2198Z" fill="#CC3A0E"/>
</svg>
