<svg width="20" height="20" viewBox="0 0 20 20" fill="none" xmlns="http://www.w3.org/2000/svg">
<path d="M15.5 2.75C15.6989 2.75 15.8897 2.82902 16.0303 2.96967C16.171 3.11032 16.25 3.30109 16.25 3.5V11.5C16.25 11.6989 16.171 11.8897 16.0303 12.0303C15.8897 12.171 15.6989 12.25 15.5 12.25C15.3011 12.25 15.1103 12.171 14.9697 12.0303C14.829 11.8897 14.75 11.6989 14.75 11.5V3.5C14.75 3.30109 14.829 3.11032 14.9697 2.96967C15.1103 2.82902 15.3011 2.75 15.5 2.75ZM5.97 5.97C6.11063 5.82955 6.30125 5.75066 6.5 5.75066C6.69875 5.75066 6.88937 5.82955 7.03 5.97L13.03 11.97C13.1037 12.0387 13.1628 12.1215 13.2038 12.2135C13.2448 12.3055 13.2668 12.4048 13.2686 12.5055C13.2704 12.6062 13.2518 12.7062 13.2141 12.7996C13.1764 12.893 13.1203 12.9778 13.049 13.049C12.9778 13.1203 12.893 13.1764 12.7996 13.2141C12.7062 13.2518 12.6062 13.2704 12.5055 13.2686C12.4048 13.2668 12.3055 13.2448 12.2135 13.2038C12.1215 13.1628 12.0387 13.1037 11.97 13.03L5.97 7.03C5.82955 6.88937 5.75066 6.69875 5.75066 6.5C5.75066 6.30125 5.82955 6.11063 5.97 5.97ZM3.5 14.75C3.30109 14.75 3.11032 14.829 2.96967 14.9697C2.82902 15.1103 2.75 15.3011 2.75 15.5C2.75 15.6989 2.82902 15.8897 2.96967 16.0303C3.11032 16.171 3.30109 16.25 3.5 16.25H11.5C11.6989 16.25 11.8897 16.171 12.0303 16.0303C12.171 15.8897 12.25 15.6989 12.25 15.5C12.25 15.3011 12.171 15.1103 12.0303 14.9697C11.8897 14.829 11.6989 14.75 11.5 14.75H3.5Z" fill="white"/>
</svg>
