<svg width="24" height="24" viewBox="0 0 24 24" fill="none" xmlns="http://www.w3.org/2000/svg">
<path d="M9.00003 17.6C8.86669 17.6 8.74169 17.575 8.62503 17.525C8.50836 17.475 8.40003 17.4 8.30003 17.3L3.70003 12.7C3.60003 12.6 3.52903 12.4917 3.48703 12.375C3.44503 12.2584 3.42469 12.1334 3.42603 12C3.42736 11.8667 3.44836 11.7417 3.48903 11.625C3.52969 11.5084 3.60036 11.4 3.70103 11.3L8.30103 6.70002C8.40103 6.60002 8.50936 6.52502 8.62603 6.47502C8.74269 6.42502 8.86736 6.40002 9.00003 6.40002C9.26669 6.40002 9.50003 6.49602 9.70003 6.68802C9.90003 6.88002 10 7.12569 10 7.42502V16.575C10 16.875 9.90003 17.121 9.70003 17.313C9.50003 17.505 9.26669 17.6007 9.00003 17.6ZM8.50003 15.375V8.62502L5.12503 12L8.50003 15.375ZM15 17.6C14.7334 17.6 14.5 17.504 14.3 17.312C14.1 17.12 14 16.8744 14 16.575V7.42502C14 7.12502 14.1 6.87936 14.3 6.68802C14.5 6.49669 14.7334 6.40069 15 6.40002C15.1334 6.40002 15.2584 6.42502 15.375 6.47502C15.4917 6.52502 15.6 6.60002 15.7 6.70002L20.3 11.3C20.4 11.4 20.471 11.5084 20.513 11.625C20.555 11.7417 20.5757 11.8667 20.575 12C20.5744 12.1334 20.5537 12.2584 20.513 12.375C20.4724 12.4917 20.4014 12.6 20.3 12.7L15.7 17.3C15.6 17.4 15.4917 17.475 15.375 17.525C15.2584 17.575 15.1334 17.6 15 17.6Z" fill="black"/>
</svg>
